<svg version="1.1" id="Layer_1" xmlns="http://www.w3.org/2000/svg" xmlns:xlink="http://www.w3.org/1999/xlink" x="0px" y="0px"
	 width="100%" viewBox="0 0 384 384" enable-background="new 0 0 384 384" xml:space="preserve">
<path fill="#000000" opacity="1.000000" stroke="none" 
	d="
M150.428467,385.000000 
	C141.928238,377.886780 131.660797,374.339630 122.917564,368.270203 
	C110.489059,359.642426 97.498695,351.841217 84.759575,343.687500 
	C74.009735,336.807037 63.260845,329.851593 52.217010,323.368774 
	C41.669430,317.177338 31.732252,309.865631 21.278955,303.415436 
	C18.757370,301.859528 16.773266,299.468689 15.329451,296.768188 
	C14.281243,294.807678 13.643136,292.854248 15.238678,290.762085 
	C21.979048,301.187225 33.449795,305.037872 42.708157,311.734924 
	C52.009373,318.462982 61.794411,324.522491 71.375275,330.863098 
	C72.333237,331.497101 73.275055,332.262268 74.834778,331.879181 
	C76.078552,328.077026 75.040512,324.121338 75.024361,320.214813 
	C74.947197,301.549591 74.896286,282.883636 74.680321,264.219788 
	C74.564720,254.228745 74.073051,244.242523 73.885437,234.251617 
	C73.832901,231.453903 72.795334,229.624603 70.385941,228.168167 
	C52.708847,217.482574 35.059944,206.749451 17.486473,195.894806 
	C15.677253,194.777283 14.135688,194.940674 12.371953,195.669983 
	C9.532858,189.748688 15.573089,183.823242 10.867745,178.382324 
	C30.800920,191.929398 51.682220,202.711746 71.074837,215.532288 
	C73.372749,213.525375 72.888618,211.580246 72.883484,209.824493 
	C72.833267,192.659073 72.607086,175.493027 72.713516,158.328918 
	C72.748413,152.700180 70.744194,149.351456 65.598259,146.557053 
	C49.938202,138.053116 34.642418,128.879089 19.185392,119.999763 
	C17.080418,118.790550 15.176353,117.019218 11.775612,117.112122 
	C12.074697,125.633049 12.608371,134.107117 11.116158,142.520035 
	C9.454890,137.972702 8.719337,133.294098 8.969152,128.600494 
	C9.368830,121.091232 6.858737,113.361130 10.970816,106.033592 
	C11.692373,104.747810 9.651413,102.109291 9.372176,100.030243 
	C8.147933,90.915138 9.029943,81.730461 8.753300,72.577980 
	C8.631756,68.556816 13.229828,66.068680 16.441139,67.835129 
	C29.567635,75.055611 42.719913,82.229202 55.846336,89.449821 
	C61.099060,92.339256 66.337509,95.257042 71.529228,98.254120 
	C74.938614,100.222290 78.512230,100.549980 82.129951,99.317131 
	C100.886505,92.925247 119.614014,86.448059 138.347351,79.988182 
	C139.409988,79.621742 140.670975,79.478119 141.244171,77.362656 
	C121.991989,67.419762 102.597672,57.403465 82.750252,47.153164 
	C88.419067,43.271408 92.771034,42.738029 98.599037,45.916065 
	C114.963844,54.839870 131.869553,62.767776 148.492508,71.224953 
	C152.730499,73.381096 156.655823,74.047241 161.361450,72.344887 
	C177.152222,66.632240 193.083099,61.306858 209.358917,55.695835 
	C208.030685,52.850666 205.589905,52.424400 203.655228,51.496120 
	C188.190002,44.075722 172.654709,36.800350 157.234451,29.288511 
	C155.408493,28.399006 151.153259,28.278479 153.103012,24.639647 
	C154.711136,21.638441 157.881348,20.037933 161.645157,21.849512 
	C173.499466,27.555170 185.375183,33.216446 197.218552,38.944660 
	C203.965012,42.207680 210.698364,45.501442 217.372421,48.909065 
	C221.313339,50.921215 225.138168,51.233902 229.393265,49.737076 
	C240.703094,45.758579 252.115265,42.071716 263.465179,38.205570 
	C265.178467,37.621971 267.052124,37.012562 268.361847,35.859055 
	C270.245728,34.199921 271.937012,34.500904 273.857605,35.368065 
	C292.333527,43.710003 311.365082,50.901554 329.154175,60.659966 
	C343.562103,68.563606 359.168488,73.736374 373.690216,81.324059 
	C377.736328,83.438171 380.158081,85.893982 378.972687,89.873230 
	C363.722290,95.094627 349.004303,100.130295 334.289673,105.175652 
	C332.243011,105.877403 330.741760,107.336754 330.374542,109.388474 
	C329.055176,116.759628 328.774597,124.181770 329.601532,132.796341 
	C345.968445,126.934021 361.505707,120.971512 377.397369,114.006699 
	C379.461578,145.502426 377.247772,177.138809 373.700592,208.760742 
	C362.356842,210.443481 352.566101,216.781998 341.790131,220.418137 
	C338.483734,221.533813 335.306091,223.025345 332.026459,224.227356 
	C328.094086,225.668594 326.331970,228.343063 326.269196,232.578201 
	C325.992676,251.229401 325.608490,269.879395 325.175232,288.527740 
	C324.896667,300.517242 324.429413,312.502350 324.141541,324.491699 
	C324.099701,326.234253 323.560638,328.175049 325.485809,330.236969 
	C339.920959,323.730957 354.458893,317.010468 368.770844,309.606964 
	C369.356903,313.236572 367.449402,316.280365 362.816010,318.559296 
	C356.397827,321.716125 349.913757,324.757233 343.346191,327.588837 
	C320.149902,337.589874 297.226746,348.186371 274.276428,358.733124 
	C265.391479,362.816193 256.081848,366.155060 247.193863,370.137695 
	C236.921677,374.740540 226.691940,379.616882 216.266418,384.779358 
	C213.299988,385.000000 210.599976,385.000000 207.673874,384.737915 
	C218.850418,379.035767 230.203857,373.488525 241.684311,368.218018 
	C245.346771,366.536652 247.022110,364.157959 247.048279,360.164307 
	C247.253357,328.878357 247.514328,297.592712 247.825562,266.307648 
	C247.868759,261.966675 246.278580,261.034698 242.345810,262.740173 
	C224.496552,270.480652 206.619720,278.159027 188.695679,285.724426 
	C184.537247,287.479614 183.149200,290.314911 183.206680,294.686157 
	C183.397018,309.165497 183.322586,323.648376 183.334305,338.129913 
	C183.346954,353.754089 184.312485,369.385254 183.000000,385.000000 
	C179.307098,385.000000 175.614182,385.000000 171.375519,384.537598 
	C170.805374,382.743225 170.745972,381.410828 170.761673,380.079346 
	C171.096024,351.767883 171.343002,323.454742 171.863815,295.146698 
	C171.963577,289.725098 170.557190,286.105743 165.426544,283.507477 
	C159.059341,280.282928 153.150864,276.156403 147.015976,272.466461 
	C145.644135,271.641357 144.390015,270.307343 142.444717,270.931458 
	C140.760330,272.531769 141.343445,274.648712 141.339386,276.567261 
	C141.274994,307.051422 141.306702,337.535950 141.166687,368.019684 
	C141.147934,372.101929 142.534836,374.832733 145.853958,377.233063 
	C149.293823,379.720673 153.677582,381.049408 156.000000,385.000000 
	C154.285645,385.000000 152.571289,385.000000 150.428467,385.000000 
M305.219513,235.756287 
	C292.010651,241.290176 278.849731,246.943283 265.562988,252.283371 
	C261.707275,253.833023 260.153137,256.256744 260.107117,260.206787 
	C259.744171,291.363892 259.306885,322.520172 258.956543,353.677429 
	C258.896759,358.993927 260.084534,359.744019 264.852173,357.504974 
	C277.818359,351.415649 290.567566,344.822357 303.753815,339.261200 
	C310.388153,336.463257 312.551819,332.279022 312.675598,325.584381 
	C313.202087,297.104187 314.032867,268.629761 314.659302,240.151154 
	C314.818970,232.890259 313.955505,232.385925 307.329254,234.931046 
	C306.862732,235.110245 306.392426,235.279556 305.219513,235.756287 
M119.854164,361.600922 
	C122.075752,363.073761 124.293594,364.552307 126.520416,366.017151 
	C127.747223,366.824158 128.938049,368.154602 130.542969,367.368195 
	C132.233536,366.539764 131.681793,364.742676 131.671021,363.319824 
	C131.434036,332.000336 131.142838,300.681244 130.924103,269.361664 
	C130.901047,266.061890 129.803391,263.795837 126.825005,262.029541 
	C114.649719,254.809204 102.609695,247.361053 90.490051,240.046158 
	C89.145111,239.234390 87.809837,237.896667 85.780190,238.999420 
	C84.912399,240.600662 85.211098,242.452393 85.235443,244.249466 
	C85.641380,274.223053 86.046669,304.196655 86.497444,334.169586 
	C86.549484,337.629578 87.571251,340.598267 90.793480,342.654694 
	C100.337273,348.745605 109.776100,355.000977 119.854164,361.600922 
M239.362076,183.006744 
	C222.089844,190.004440 204.843567,197.067398 187.525543,203.949844 
	C183.626282,205.499481 182.345062,208.177917 182.351013,212.070862 
	C182.379501,230.707764 182.312073,249.344803 182.331924,267.981720 
	C182.337006,272.759247 183.653046,273.684235 188.162003,271.784607 
	C206.410400,264.096466 224.577209,256.213867 242.854416,248.595596 
	C247.182449,246.791626 248.861557,244.032272 248.821869,239.417816 
	C248.677231,222.597626 248.787888,205.775314 248.784302,188.953812 
	C248.782349,179.791489 248.765991,179.791489 239.362076,183.006744 
M277.358368,167.043884 
	C273.460083,168.483673 269.562042,169.924103 265.663422,171.363052 
	C262.687805,172.461349 261.121582,174.513306 261.063324,177.765152 
	C260.717377,197.078629 260.323456,216.391235 259.968475,235.704544 
	C259.909973,238.886780 261.000824,240.547577 264.527466,239.072678 
	C279.730865,232.714417 294.955170,226.406204 310.168091,220.070679 
	C313.549011,218.662643 315.471161,216.297729 315.503845,212.444046 
	C315.652222,194.957748 315.892761,177.472260 316.065460,159.986130 
	C316.137054,152.738464 315.205139,152.129257 308.269897,154.844742 
	C298.197266,158.788666 288.141907,162.776642 277.358368,167.043884 
M374.906860,145.706802 
	C375.138092,142.223602 375.538818,138.741455 375.560150,135.256973 
	C375.590698,130.256973 374.476379,129.483398 369.953247,131.154297 
	C358.414215,135.416962 346.916351,139.791504 335.364105,144.017639 
	C331.374023,145.477310 329.055664,147.796555 328.839661,152.347504 
	C327.948700,171.122360 327.062103,189.894150 327.167938,208.696930 
	C327.174316,209.827209 327.026428,211.071350 328.394867,211.979156 
	C330.989685,212.245514 333.375549,210.888474 335.778778,209.919464 
	C345.960510,205.814072 355.969269,201.251740 366.269348,197.479111 
	C371.782867,195.459671 373.607849,191.914825 373.731842,186.568817 
	C374.040405,173.265594 374.481964,159.965439 374.906860,145.706802 
M89.863724,160.773880 
	C87.963783,159.929474 86.549683,157.919907 84.136375,158.279587 
	C82.587784,159.901688 83.245926,161.833160 83.270584,163.574661 
	C83.517723,181.032898 84.017967,198.489868 84.034813,215.947601 
	C84.039886,221.203323 86.186951,224.181274 90.549316,226.602005 
	C101.463608,232.658493 112.160576,239.093643 122.493515,246.119827 
	C124.479889,247.470520 126.384552,249.278732 129.010895,249.015732 
	C130.281158,247.840042 130.064682,246.447678 130.060211,245.150375 
	C129.994751,226.168869 129.853394,207.187408 129.869308,188.206039 
	C129.872528,184.376373 128.216766,182.093704 124.953194,180.312912 
	C113.411140,174.014908 101.963768,167.543381 89.863724,160.773880 
M171.964813,119.441589 
	C181.079910,116.076294 190.195007,112.710999 199.310104,109.345695 
	C199.439728,108.859436 199.569336,108.373184 199.698959,107.886925 
	C199.077469,107.612572 198.438400,107.372009 197.837097,107.058907 
	C183.956955,99.831612 170.084183,92.590096 156.200943,85.368767 
	C153.817169,84.128845 151.451691,84.441544 148.966064,85.314384 
	C131.064651,91.600533 113.124397,97.776161 95.229553,104.080750 
	C93.039421,104.852371 90.403694,105.143677 88.832390,107.849831 
	C90.182556,108.673523 91.264702,109.385315 92.393097,110.014122 
	C103.448975,116.175041 114.685165,122.037262 125.502419,128.591217 
	C131.058182,131.957336 136.184555,132.351776 142.065079,130.133804 
	C151.723068,126.491096 161.492462,123.143806 171.964813,119.441589 
M176.996979,75.559151 
	C174.034241,77.020111 170.135391,76.537872 167.705490,79.805466 
	C168.457001,80.405014 168.908234,80.898735 169.465347,81.189842 
	C182.447388,87.973244 195.442123,94.732353 208.431427,101.501846 
	C211.757446,103.235245 215.135193,103.154083 218.581543,101.895409 
	C230.152130,97.669601 241.791031,93.620850 253.272766,89.166580 
	C257.932220,87.358963 263.024414,86.349434 267.312561,83.478165 
	C266.128021,81.296303 264.411102,80.940056 262.949677,80.237244 
	C251.248947,74.610306 239.446854,69.184074 227.874542,63.305187 
	C223.331696,60.997356 219.188263,60.742138 214.492844,62.443691 
	C202.290985,66.865471 190.008118,71.063614 176.996979,75.559151 
M143.799561,256.559845 
	C151.322479,261.170837 158.858826,265.760132 166.361786,270.403381 
	C169.404572,272.286407 171.549133,272.189423 171.563782,267.992401 
	C171.631302,248.660217 171.632553,229.327728 171.611099,209.995377 
	C171.607285,206.554764 170.063095,204.100250 166.884079,202.412933 
	C159.825241,198.666336 152.909164,194.651505 145.908615,190.793686 
	C144.795715,190.180389 143.714584,189.166336 141.976517,189.910278 
	C140.954636,190.967361 141.179703,192.518234 141.180969,193.974442 
	C141.197067,212.473862 141.249832,230.973251 141.246689,249.472656 
	C141.246277,251.901581 141.768570,254.087433 143.799561,256.559845 
M161.608109,131.257294 
	C156.509415,132.892548 151.249451,134.153107 145.733917,137.523392 
	C153.515305,141.991867 160.477554,145.796646 167.236023,149.934265 
	C172.331177,153.053574 177.331146,153.473938 182.933350,151.388611 
	C201.332123,144.539963 219.813309,137.912872 238.246948,131.157333 
	C239.235916,130.794891 240.649292,130.721588 240.783249,128.429504 
	C231.651718,123.955132 222.290848,119.342674 212.900894,114.790207 
	C211.130066,113.931656 209.324905,114.463600 207.560333,115.089500 
	C192.503510,120.430244 177.441193,125.755447 161.608109,131.257294 
M315.598999,56.951805 
	C305.369568,52.149632 295.128021,47.372887 284.918884,42.528008 
	C282.252655,41.262714 279.641907,40.732685 276.743378,41.732841 
	C264.023071,46.122021 251.276245,50.434345 238.551346,54.810261 
	C237.541916,55.157391 236.122238,55.190258 236.146500,57.409653 
	C236.227005,57.453632 236.656738,57.712654 237.106369,57.930550 
	C250.719666,64.527451 264.314362,71.163368 277.967896,77.675926 
	C280.569336,78.916763 283.336670,79.026733 286.196259,77.899208 
	C297.953888,73.263145 309.955475,69.317223 321.975372,65.421432 
	C323.717499,64.856789 325.984955,64.889961 327.112671,62.336014 
	C323.445190,60.620956 319.862549,58.945583 315.598999,56.951805 
M204.628876,183.080200 
	C217.296036,177.993210 229.916290,172.784210 242.656570,167.887543 
	C246.931686,166.244415 249.241379,163.743958 249.250839,159.097794 
	C249.260315,154.443954 249.612167,149.788391 249.545105,145.137451 
	C249.474777,140.257874 248.235199,139.420731 243.718536,141.143082 
	C225.058823,148.258530 206.451691,155.512466 187.769012,162.566620 
	C183.933456,164.014816 182.200134,166.438126 182.230057,170.432617 
	C182.268753,175.595383 182.101425,180.760544 182.188675,185.921860 
	C182.268738,190.658722 183.250946,191.293518 187.612427,189.651611 
	C193.063278,187.599609 198.486404,185.473907 204.628876,183.080200 
M45.404514,120.054642 
	C52.664536,124.425346 59.928394,128.789703 67.182983,133.169388 
	C70.883514,135.403473 72.463539,134.777176 72.511330,130.531982 
	C72.574867,124.888565 72.177826,119.239029 71.943054,113.593597 
	C71.832626,110.938202 70.058632,109.399170 67.974930,108.229485 
	C50.288670,98.301369 32.599297,88.378471 14.866648,78.533638 
	C11.663454,76.755295 9.943274,77.862564 10.540724,81.428658 
	C11.289978,85.900856 11.229233,90.375343 11.351961,94.856911 
	C11.465799,99.013824 13.060740,101.912766 16.968647,104.000214 
	C26.351509,109.012154 35.507458,114.448898 45.404514,120.054642 
M291.851593,94.742035 
	C284.171722,89.657532 276.480103,89.348816 267.836426,92.990257 
	C257.144318,97.494682 245.918716,100.719276 235.010162,104.732124 
	C231.914948,105.870743 228.321823,106.225197 225.171417,109.524734 
	C234.404648,114.131561 243.085938,118.534958 251.840302,122.787933 
	C254.539688,124.099335 257.327179,123.415398 260.063995,122.419594 
	C272.085510,118.045509 284.144012,113.772827 296.156982,109.375633 
	C300.464722,107.798859 304.962189,106.631798 309.612793,103.860909 
	C304.125793,99.684265 297.968292,98.035736 291.851593,94.742035 
M261.193756,139.846527 
	C261.155609,144.841995 261.071594,149.837677 261.095154,154.832855 
	C261.111359,158.264404 262.673309,159.215790 265.933655,157.893280 
	C277.793884,153.082367 289.792389,148.601303 301.564606,143.587051 
	C318.077698,136.553467 318.011108,136.397095 317.738556,118.586151 
	C317.652771,112.980431 316.835602,112.398476 311.539185,114.395058 
	C296.749939,119.970139 282.031708,125.741585 267.155029,131.071472 
	C263.057617,132.539459 260.937347,134.609497 261.193756,139.846527 
M345.701691,92.121262 
	C353.500214,89.228935 361.298767,86.336609 369.097290,83.444283 
	C369.059509,82.949211 369.021698,82.454140 368.983917,81.959061 
	C361.302887,78.452393 353.505188,75.175613 345.982422,71.357147 
	C341.074036,68.865707 336.629272,69.151978 331.653564,71.035233 
	C320.306366,75.330070 308.812531,79.237938 297.369812,83.279175 
	C296.257507,83.672012 295.114319,83.932587 294.733673,86.026535 
	C303.644104,90.344276 312.694122,94.796257 321.816620,99.094391 
	C323.659515,99.962692 325.665771,99.508255 327.630859,98.755074 
	C333.377960,96.552322 339.187073,94.511246 345.701691,92.121262 
M109.296234,132.221786 
	C100.402847,127.277992 91.509460,122.334198 81.314270,116.666740 
	C81.792389,125.415642 82.039146,132.500214 82.648766,139.553406 
	C82.836830,141.729172 84.560463,143.349197 86.550720,144.481659 
	C98.992111,151.560867 111.420189,158.663528 123.851982,165.759613 
	C127.275864,167.713974 128.822037,166.579086 128.801865,162.783493 
	C128.777100,158.121155 128.663071,153.455139 128.804337,148.797302 
	C128.930344,144.642258 127.169594,141.858963 123.533638,139.972992 
	C118.954849,137.597977 114.461510,135.058212 109.296234,132.221786 
M171.173111,165.748199 
	C170.634155,164.289062 169.718704,163.105270 168.361679,162.363770 
	C160.047592,157.820831 151.719543,153.303391 143.384430,148.799149 
	C142.634583,148.393936 141.806213,148.292145 140.337616,149.373581 
	C140.108215,156.070587 139.610641,163.298340 140.591507,170.531647 
	C140.814560,172.176498 141.823349,173.707962 143.315475,174.575714 
	C151.072739,179.087036 158.848206,183.568695 166.674423,187.958878 
	C169.303238,189.433533 170.925018,188.337189 170.963364,185.429443 
	C171.046555,179.123199 172.212250,172.842728 171.173111,165.748199 
z"/>
</svg>