<?xml version="1.0" standalone="no"?>
<svg xmlns:xlink="http://www.w3.org/1999/xlink" id="wave" style="transform:rotate(180deg); transition: 0.3s" viewBox="0 0 1440 400" version="1.1" xmlns="http://www.w3.org/2000/svg"><defs><linearGradient id="sw-gradient-0" x1="0" x2="0" y1="1" y2="0"><stop stop-color="rgba(0, 0, 0, 1)" offset="0%"/><stop stop-color="rgba(0, 0, 0, 1)" offset="100%"/></linearGradient></defs><path style="transform:translate(0, 0px); opacity:1" fill="url(#sw-gradient-0)" d="M0,320L60,326.7C120,333,240,347,360,320C480,293,600,227,720,213.3C840,200,960,240,1080,253.3C1200,267,1320,253,1440,213.3C1560,173,1680,107,1800,66.7C1920,27,2040,13,2160,60C2280,107,2400,213,2520,226.7C2640,240,2760,160,2880,146.7C3000,133,3120,187,3240,226.7C3360,267,3480,293,3600,253.3C3720,213,3840,107,3960,106.7C4080,107,4200,213,4320,213.3C4440,213,4560,107,4680,60C4800,13,4920,27,5040,73.3C5160,120,5280,200,5400,200C5520,200,5640,120,5760,133.3C5880,147,6000,253,6120,246.7C6240,240,6360,120,6480,73.3C6600,27,6720,53,6840,80C6960,107,7080,133,7200,153.3C7320,173,7440,187,7560,180C7680,173,7800,147,7920,126.7C8040,107,8160,93,8280,80C8400,67,8520,53,8580,46.7L8640,40L8640,400L8580,400C8520,400,8400,400,8280,400C8160,400,8040,400,7920,400C7800,400,7680,400,7560,400C7440,400,7320,400,7200,400C7080,400,6960,400,6840,400C6720,400,6600,400,6480,400C6360,400,6240,400,6120,400C6000,400,5880,400,5760,400C5640,400,5520,400,5400,400C5280,400,5160,400,5040,400C4920,400,4800,400,4680,400C4560,400,4440,400,4320,400C4200,400,4080,400,3960,400C3840,400,3720,400,3600,400C3480,400,3360,400,3240,400C3120,400,3000,400,2880,400C2760,400,2640,400,2520,400C2400,400,2280,400,2160,400C2040,400,1920,400,1800,400C1680,400,1560,400,1440,400C1320,400,1200,400,1080,400C960,400,840,400,720,400C600,400,480,400,360,400C240,400,120,400,60,400L0,400Z"/></svg>