<?xml version="1.0" standalone="no"?>
<svg xmlns:xlink="http://www.w3.org/1999/xlink" id="wave" style="transform:rotate(0deg); transition: 0.3s" viewBox="0 0 1440 400" version="1.1" xmlns="http://www.w3.org/2000/svg"><defs><linearGradient id="sw-gradient-0" x1="0" x2="0" y1="1" y2="0"><stop stop-color="rgba(0, 0, 0, 1)" offset="0%"/><stop stop-color="rgba(0, 0, 0, 1)" offset="100%"/></linearGradient></defs><path style="transform:translate(0, 0px); opacity:1" fill="url(#sw-gradient-0)" d="M0,320L60,273.3C120,227,240,133,360,140C480,147,600,253,720,260C840,267,960,173,1080,113.3C1200,53,1320,27,1440,26.7C1560,27,1680,53,1800,113.3C1920,173,2040,267,2160,253.3C2280,240,2400,120,2520,80C2640,40,2760,80,2880,100C3000,120,3120,120,3240,100C3360,80,3480,40,3600,80C3720,120,3840,240,3960,300C4080,360,4200,360,4320,300C4440,240,4560,120,4680,93.3C4800,67,4920,133,5040,180C5160,227,5280,253,5400,266.7C5520,280,5640,280,5760,240C5880,200,6000,120,6120,126.7C6240,133,6360,227,6480,233.3C6600,240,6720,160,6840,153.3C6960,147,7080,213,7200,206.7C7320,200,7440,120,7560,113.3C7680,107,7800,173,7920,166.7C8040,160,8160,80,8280,80C8400,80,8520,160,8580,200L8640,240L8640,400L8580,400C8520,400,8400,400,8280,400C8160,400,8040,400,7920,400C7800,400,7680,400,7560,400C7440,400,7320,400,7200,400C7080,400,6960,400,6840,400C6720,400,6600,400,6480,400C6360,400,6240,400,6120,400C6000,400,5880,400,5760,400C5640,400,5520,400,5400,400C5280,400,5160,400,5040,400C4920,400,4800,400,4680,400C4560,400,4440,400,4320,400C4200,400,4080,400,3960,400C3840,400,3720,400,3600,400C3480,400,3360,400,3240,400C3120,400,3000,400,2880,400C2760,400,2640,400,2520,400C2400,400,2280,400,2160,400C2040,400,1920,400,1800,400C1680,400,1560,400,1440,400C1320,400,1200,400,1080,400C960,400,840,400,720,400C600,400,480,400,360,400C240,400,120,400,60,400L0,400Z"/></svg>